REM MD5 9f66f1d88d2bb17184145c1de8c08368
FILE "Official U.S. PlayStation Magazine Demo Disc 23 (USA).bin" BINARY
  TRACK 01 MODE2/2352
    INDEX 01 00:00:00
  TRACK 02 AUDIO
    INDEX 00 44:20:18
    INDEX 01 44:22:18
  TRACK 03 AUDIO
    INDEX 00 46:32:42
    INDEX 01 46:34:42
  TRACK 04 AUDIO
    INDEX 00 47:34:16
    INDEX 01 47:36:16
  TRACK 05 AUDIO
    INDEX 00 48:54:32
    INDEX 01 48:56:32
REM LEADOUT 49:02:28
